<svg id="Layer_1" enable-background="new 0 0 511.999 511.999" height="512" viewBox="0 0 511.999 511.999" width="512" xmlns="http://www.w3.org/2000/svg"><g><g clip-rule="evenodd" fill-rule="evenodd"><path d="m256 89.031v-79.031l-213.042 123z" fill="#e0ef9b"/><path d="m256 89.031-213.042 43.968 68.443 206.484z" fill="#cbe558"/><path d="m111.401 339.483-68.443-206.483v245.999z" fill="#e0ef9b"/><path d="m256 501.999-144.599-162.516-68.443 39.517z" fill="#e0ef9b"/><path d="m111.401 339.483 144.599 162.516 144.599-162.516z" fill="#cbe558"/><g fill="#e0ef9b"><path d="m111.401 339.483h289.198l-144.599-250.452z"/><path d="m400.599 339.483-144.599 162.516 213.042-123z"/><path d="m400.599 339.483 68.443 39.517v-246z"/></g><path d="m400.599 339.483 68.443-206.483-213.042-43.969z" fill="#cbe558"/><path d="m256 89.031 213.042 43.969-213.042-123z" fill="#e0ef9b"/></g><g><path d="m474.042 124.34-213.042-123c-3.094-1.786-6.906-1.786-10 0l-213.042 123c-3.094 1.786-5 5.087-5 8.66v246c0 3.573 1.906 6.874 5 8.66l213.042 123c3.094 1.787 6.906 1.787 10 0l213.042-123c3.094-1.786 5-5.087 5-8.66v-246c0-3.573-1.907-6.874-5-8.66zm-15 237.339-46.387-26.782 46.387-139.945zm-257.839-177.736c4.785 2.763 10.899 1.122 13.66-3.66l41.137-71.252 127.279 220.453h-254.558l41.135-71.248c2.762-4.783 1.123-10.899-3.66-13.66-4.784-2.763-10.9-1.123-13.66 3.66l-38.654 66.951-57.896-174.665 180.212-37.193-38.656 66.954c-2.761 4.783-1.122 10.898 3.661 13.66zm177.113 165.541-122.316 137.471-122.316-137.471zm-102.515-246.155 180.212 37.193-57.896 174.665zm-9.801-22.445v-53.564l144.39 83.364zm-20 0-144.391 29.8 144.391-83.364zm-193.042 114.068 46.388 139.945-46.388 26.782zm56.388 157.265 98.004 110.147-144.392-83.364zm293.309 0 46.387 26.783-144.39 83.364z"/><path d="m183.701 204.257h-.008c-5.522 0-9.996 4.477-9.996 10 .492 13.248 19.515 13.249 20.004 0 0-5.523-4.478-10-10-10z"/></g></g></svg>