<svg id="filled_outline" enable-background="new 0 0 512 512" viewBox="0 0 512 512" xmlns="http://www.w3.org/2000/svg"><path d="m432 192h40v72h-40z" fill="#a9b2e0"/><path d="m432 160h40v72h-40z" fill="#e6c067"/><path d="m432 128h40v72h-40z" fill="#e65c64"/><path d="m40 456c0 26.51 21.49 48 48 48h352v-400h-352c-26.51 0-48-21.49-48-48z" fill="#3b3f4e"/><path d="m440 104h-352c-26.51 0-48-21.49-48-48 0-26.51 21.49-48 48-48h352c-29.436 25.231-29.436 70.769 0 96z" fill="#e6c067"/><path d="m88 104h352v400h-352z" fill="#4d5166"/><g><path d="m88 144h-9.373c-16.729 0-32.456-6.515-44.285-18.344-3.124-3.124-3.124-8.189 0-11.313 3.125-3.123 8.19-3.123 11.314.001 8.807 8.806 20.516 13.656 32.971 13.656h9.373c4.418 0 8 3.582 8 8s-3.582 8-8 8z" fill="#272933"/></g><g><path d="m88 184h-9.373c-16.729 0-32.456-6.515-44.285-18.344-3.124-3.124-3.124-8.189 0-11.313 3.125-3.123 8.19-3.123 11.314.001 8.807 8.806 20.516 13.656 32.971 13.656h9.373c4.418 0 8 3.582 8 8s-3.582 8-8 8z" fill="#272933"/></g><g><path d="m88 224h-9.373c-16.729 0-32.456-6.515-44.285-18.344-3.124-3.124-3.124-8.189 0-11.313 3.125-3.123 8.19-3.123 11.314.001 8.807 8.806 20.516 13.656 32.971 13.656h9.373c4.418 0 8 3.582 8 8s-3.582 8-8 8z" fill="#272933"/></g><g><path d="m88 264h-9.373c-16.729 0-32.456-6.515-44.285-18.344-3.124-3.124-3.124-8.189 0-11.313 3.125-3.123 8.19-3.123 11.314.001 8.807 8.806 20.516 13.656 32.971 13.656h9.373c4.418 0 8 3.582 8 8s-3.582 8-8 8z" fill="#272933"/></g><g><path d="m88 304h-9.373c-16.729 0-32.456-6.515-44.285-18.344-3.124-3.124-3.124-8.189 0-11.313 3.125-3.123 8.19-3.123 11.314.001 8.807 8.806 20.516 13.656 32.971 13.656h9.373c4.418 0 8 3.582 8 8s-3.582 8-8 8z" fill="#272933"/></g><g><path d="m88 344h-9.373c-16.729 0-32.456-6.515-44.285-18.344-3.124-3.124-3.124-8.189 0-11.313 3.125-3.123 8.19-3.123 11.314.001 8.807 8.806 20.516 13.656 32.971 13.656h9.373c4.418 0 8 3.582 8 8s-3.582 8-8 8z" fill="#272933"/></g><g><path d="m88 384h-9.373c-16.729 0-32.456-6.515-44.285-18.344-3.124-3.124-3.124-8.189 0-11.313 3.125-3.123 8.19-3.123 11.314.001 8.807 8.806 20.516 13.656 32.971 13.656h9.373c4.418 0 8 3.582 8 8s-3.582 8-8 8z" fill="#272933"/></g><g><path d="m88 424h-9.373c-16.729 0-32.456-6.515-44.285-18.344-3.124-3.124-3.124-8.189 0-11.313 3.125-3.122 8.19-3.123 11.314.001 8.807 8.806 20.516 13.656 32.971 13.656h9.373c4.418 0 8 3.582 8 8s-3.582 8-8 8z" fill="#272933"/></g><g><path d="m88 464h-9.373c-16.729 0-32.456-6.515-44.285-18.344-3.124-3.124-3.124-8.189 0-11.313 3.125-3.123 8.19-3.123 11.314.001 8.807 8.806 20.516 13.656 32.971 13.656h9.373c4.418 0 8 3.582 8 8s-3.582 8-8 8z" fill="#272933"/></g><circle cx="264" cy="264" fill="#e65c64" r="128"/><path d="m417.92 56c0 8.17 1.57 16.33 4.71 24h-326.63c-6.62 0-12.62-2.69-16.97-7.03-4.34-4.35-7.03-10.35-7.03-16.97 0-13.25 10.75-24 24-24h326.63c-3.14 7.67-4.71 15.83-4.71 24z" fill="#937b42"/><g fill="#e6c067"><path d="m144 440h240v32h-240z"/><path d="m352 384c17.673 0 32 14.327 32 32 0-17.673 14.327-32 32-32-17.673 0-32-14.327-32-32 0 17.673-14.327 32-32 32z"/><path d="m176 384c-17.673 0-32 14.327-32 32 0-17.673-14.327-32-32-32 17.673 0 32-14.327 32-32 0 17.673 14.327 32 32 32z"/></g><g><path d="m417.92 56c0 2.67.17 5.35.51 8h-314.43c-4.42 0-8-3.58-8-8s3.58-8 8-8h314.43c-.34 2.65-.51 5.33-.51 8z" fill="#5b4c29"/></g><g><path d="m352 320h-176c-2.894 0-5.562-1.562-6.978-4.087-1.416-2.523-1.358-5.615.151-8.085l88-144c1.454-2.378 4.04-3.828 6.827-3.828s5.373 1.45 6.826 3.828l88 144c1.509 2.47 1.567 5.562.151 8.085-1.415 2.525-4.083 4.087-6.977 4.087zm-161.735-16h147.471l-73.736-120.658z" fill="#2f323e"/></g><g><path d="m264 368c-2.787 0-5.373-1.45-6.826-3.828l-88-144c-1.509-2.47-1.567-5.562-.151-8.085 1.416-2.524 4.084-4.087 6.978-4.087h176c2.894 0 5.562 1.562 6.978 4.087 1.416 2.523 1.358 5.615-.151 8.085l-88 144c-1.455 2.378-4.041 3.828-6.828 3.828zm-73.735-144 73.735 120.658 73.735-120.658z" fill="#2f323e"/></g><g><path d="m472 120h-24v-16c0-.091-.011-.179-.014-.269-.005-.148-.009-.296-.022-.443-.012-.132-.031-.262-.049-.393-.017-.125-.034-.25-.057-.375-.026-.141-.059-.278-.093-.416-.028-.114-.055-.227-.087-.34-.04-.136-.085-.27-.132-.403-.04-.114-.079-.227-.124-.34-.05-.124-.104-.244-.16-.365-.054-.118-.109-.236-.17-.352-.057-.11-.119-.216-.181-.323-.069-.119-.139-.238-.215-.354-.066-.101-.137-.198-.207-.296-.081-.113-.162-.225-.25-.334-.081-.1-.167-.196-.252-.293-.086-.097-.171-.195-.262-.288-.105-.107-.215-.208-.326-.309-.066-.06-.125-.125-.193-.183-12.254-10.502-19.283-25.783-19.283-41.924s7.029-31.422 19.283-41.926c2.542-2.179 3.458-5.71 2.297-8.85-1.161-3.139-4.155-5.224-7.503-5.224h-352c-30.878 0-56 25.121-56 56v400c0 30.879 25.122 56 56 56h352c4.418 0 8-3.582 8-8v-232h24c4.418 0 8-3.582 8-8v-31.332c-.011.002-.023.003-.034.005.019-.222.034-.446.034-.674v-32-10.38-61.619c0-4.418-3.582-8-8-8zm-8 16v54.919 1.081h-16v-56zm-53.628-88h-306.372c-4.418 0-8 3.582-8 8s3.582 8 8 8h306.378c.304 2.702.77 5.371 1.375 8h-315.753c-4.267 0-8.286-1.667-11.307-4.681-3.026-3.033-4.693-7.052-4.693-11.319 0-8.822 7.178-16 16-16h315.739c-.604 2.628-1.062 5.299-1.367 8zm37.628 160h16v16h-16zm-360-192h334.209c-1.742 2.564-3.3 5.24-4.688 8h-321.521c-17.645 0-32 14.355-32 32 0 8.533 3.327 16.567 9.379 22.632 6.053 6.041 14.087 9.368 22.621 9.368h321.533c1.388 2.76 2.944 5.436 4.686 8h-334.219c-22.056 0-40-17.944-40-40s17.944-40 40-40zm-8 112h-1.373c-11.383 0-22.137-4.062-30.627-11.483v-21.363c8.406 8.586 19.55 14.474 32 16.263zm-1.373 16h1.373v24h-1.373c-11.383 0-22.137-4.062-30.627-11.483v-20.505c9.251 5.203 19.722 7.988 30.627 7.988zm0 40h1.373v24h-1.373c-11.383 0-22.137-4.062-30.627-11.483v-20.505c9.251 5.203 19.722 7.988 30.627 7.988zm0 40h1.373v24h-1.373c-11.383 0-22.137-4.062-30.627-11.483v-20.505c9.251 5.203 19.722 7.988 30.627 7.988zm0 40h1.373v24h-1.373c-11.383 0-22.137-4.062-30.627-11.483v-20.505c9.251 5.203 19.722 7.988 30.627 7.988zm0 40h1.373v24h-1.373c-11.383 0-22.137-4.062-30.627-11.483v-20.505c9.251 5.203 19.722 7.988 30.627 7.988zm0 40h1.373v24h-1.373c-11.383 0-22.137-4.062-30.627-11.483v-20.505c9.251 5.203 19.722 7.988 30.627 7.988zm0 40h1.373v24h-1.373c-11.383 0-22.137-4.062-30.627-11.483v-20.505c9.251 5.203 19.722 7.988 30.627 7.988zm-30.627 32.011c9.251 5.204 19.722 7.989 30.627 7.989h1.373v24h-1.373c-11.383 0-22.137-4.062-30.627-11.483zm0 40c9.251 5.204 19.722 7.989 30.627 7.989h1.373v31.195c-18.232-3.716-31.994-19.872-32-39.184zm384 39.989h-336v-384h336zm16-240v-16h16v16z"/><path d="m257.174 364.172c1.453 2.378 4.039 3.828 6.826 3.828s5.373-1.45 6.826-3.828l26.994-44.172h54.18c2.894 0 5.562-1.562 6.978-4.087 1.416-2.523 1.358-5.615-.151-8.085l-26.785-43.828 26.784-43.828c1.509-2.47 1.567-5.562.151-8.085-1.415-2.525-4.083-4.087-6.977-4.087h-54.18l-26.994-44.172c-1.453-2.378-4.039-3.828-6.826-3.828s-5.373 1.45-6.826 3.828l-26.994 44.172h-54.18c-2.894 0-5.562 1.562-6.978 4.087-1.416 2.523-1.358 5.615.151 8.085l26.785 43.828-26.784 43.828c-1.509 2.47-1.567 5.562-.151 8.085 1.416 2.524 4.084 4.087 6.978 4.087h54.18zm6.826-19.514-15.069-24.658h30.138zm-24.847-40.658-24.444-40 24.444-40h49.693l24.444 40-24.444 40zm98.582 0h-30.137l15.069-24.658zm0-80-15.069 24.658-15.068-24.658zm-73.735-40.658 15.069 24.658h-30.138zm-73.735 40.658h30.137l-15.069 24.658zm0 80 15.069-24.658 15.068 24.658z"/><path d="m264 400c74.991 0 136-61.01 136-136s-61.009-136-136-136-136 61.01-136 136 61.009 136 136 136zm0-256c66.168 0 120 53.832 120 120s-53.832 120-120 120-120-53.832-120-120 53.832-120 120-120z"/><path d="m384 432h-240c-4.418 0-8 3.582-8 8v32c0 4.418 3.582 8 8 8h240c4.418 0 8-3.582 8-8v-32c0-4.418-3.582-8-8-8zm-8 32h-224v-16h224z"/><path d="m392 352c0-4.418-3.582-8-8-8s-8 3.582-8 8c0 13.233-10.767 24-24 24-4.418 0-8 3.582-8 8s3.582 8 8 8c13.233 0 24 10.767 24 24 0 4.418 3.582 8 8 8s8-3.582 8-8c0-13.233 10.767-24 24-24 4.418 0 8-3.582 8-8s-3.582-8-8-8c-13.233 0-24-10.767-24-24zm-8 40.025c-2.282-3.039-4.986-5.743-8.025-8.025 3.039-2.282 5.743-4.986 8.025-8.025 2.282 3.039 4.986 5.743 8.025 8.025-3.039 2.282-5.743 4.986-8.025 8.025z"/><path d="m112 392c13.233 0 24 10.767 24 24 0 4.418 3.582 8 8 8s8-3.582 8-8c0-13.233 10.767-24 24-24 4.418 0 8-3.582 8-8s-3.582-8-8-8c-13.233 0-24-10.767-24-24 0-4.418-3.582-8-8-8s-8 3.582-8 8c0 13.233-10.767 24-24 24-4.418 0-8 3.582-8 8s3.582 8 8 8zm32-16.025c2.282 3.039 4.986 5.743 8.025 8.025-3.039 2.282-5.743 4.986-8.025 8.025-2.282-3.039-4.986-5.743-8.025-8.025 3.039-2.282 5.743-4.986 8.025-8.025z"/></g></svg>