<svg id="Capa_1" enable-background="new 0 0 512 512" height="512" viewBox="0 0 512 512" width="512" xmlns="http://www.w3.org/2000/svg" xmlns:xlink="http://www.w3.org/1999/xlink"><linearGradient id="SVGID_1_" gradientUnits="userSpaceOnUse" x1="256" x2="256" y1="512" y2="0"><stop offset="0" stop-color="#a93aff"/><stop offset="1" stop-color="#ff81ff"/></linearGradient><g><g><g><path d="m256 60c-57.897 0-105 47.103-105 105s47.103 105 105 105c57.889 0 104.986-47.089 105-104.974 0-.009.001-.017.001-.026s-.001-.017-.001-.026c-.014-57.885-47.111-104.974-105-104.974zm-73.491 120h28.879c.946 18.186 3.643 35.798 8.227 50.552-18.813-10.484-32.677-28.818-37.106-50.552zm28.879-30h-28.879c4.429-21.734 18.293-40.068 37.106-50.552-4.584 14.754-7.281 32.366-8.227 50.552zm44.612 88.639c-4.841-6.148-12.66-26.089-14.568-58.639h29.137c-1.909 32.549-9.728 52.49-14.569 58.639zm-14.568-88.639c1.908-32.549 9.728-52.49 14.568-58.639 4.841 6.148 12.66 26.089 14.568 58.639zm50.953 80.552c4.584-14.754 7.281-32.367 8.227-50.552h28.879c-4.429 21.734-18.293 40.068-37.106 50.552zm8.227-80.552c-.946-18.186-3.643-35.798-8.227-50.552 18.813 10.484 32.677 28.818 37.106 50.552zm-44.612-150c-90.981 0-165 74.019-165 165 0 26.374 6.041 51.581 17.935 74.882l133.685 263.896c2.554 5.044 7.727 8.222 13.38 8.222s10.826-3.178 13.381-8.221l133.665-263.856c11.913-23.341 17.954-48.548 17.954-74.923 0-90.981-74.019-165-165-165zm120.305 226.325-120.305 237.482-120.324-237.523c-9.738-19.078-14.676-39.697-14.676-61.284 0-74.439 60.561-135 135-135s135 60.561 135 135c0 21.588-4.938 42.207-14.695 61.325z" fill="url(#SVGID_1_)"/></g></g></g></svg>