<?xml version="1.0" encoding="UTF-8"?>
<svg xmlns="http://www.w3.org/2000/svg" xmlns:xlink="http://www.w3.org/1999/xlink" id="Gradient" viewBox="0 0 512 512" width="512" height="512"><defs><linearGradient id="linear-gradient" x1="256" y1="496" x2="256" y2="16" gradientUnits="userSpaceOnUse"><stop offset="0" stop-color="#12c2e9"/><stop offset="0.5" stop-color="#c471ed"/><stop offset="1" stop-color="#f64f59"/></linearGradient></defs><path d="M358.962,260.059A8,8,0,0,0,352,256H308.53l-21.67-36.116a8,8,0,0,0-13.72,0L251.47,256H208a8,8,0,0,0-6.86,12.116L222.671,304,201.14,339.884A8,8,0,0,0,208,352h43.47l21.67,36.116a8,8,0,0,0,13.72,0L308.53,352H352a8,8,0,0,0,6.86-12.116L337.33,304l21.53-35.884A8,8,0,0,0,358.962,260.059ZM280,239.549,289.87,256H270.13ZM299.47,272l19.2,32-19.2,32H260.53l-19.2-32,19.2-32Zm-77.341,0H241.87L232,288.451Zm0,64L232,319.549,241.87,336ZM280,368.451,270.13,352h19.74ZM337.87,336H318.13L328,319.55ZM328,288.45,318.13,272h19.74ZM212.206,17.2a8,8,0,0,0-7.784-.35L176,31.056,147.578,16.845A8,8,0,0,0,136,24V48H96A39.991,39.991,0,0,0,56,88V457.038A39.006,39.006,0,0,0,94.962,496H432a8,8,0,0,0,8-8V344h8a8,8,0,0,0,8-8V272a8,8,0,0,0-8-8h-8V120a8,8,0,0,0-8-8,24,24,0,0,1,0-48,8,8,0,0,0,0-16H216V24A8,8,0,0,0,212.206,17.2ZM392.808,96a39.831,39.831,0,0,0,7.211,16H96A24.038,24.038,0,0,1,73.376,96ZM72,184h64v16H72Zm0,32h64v64H72Zm0,80h64v16H72Zm0,32h64v56H72Zm0,72h64v16H72Zm64-232H72V119.978A39.788,39.788,0,0,0,96,128h40ZM152,36.944l20.422,10.211a8,8,0,0,0,7.156,0L200,36.944V80H152ZM96,64h40V80H73.36A24.026,24.026,0,0,1,96,64ZM72,457.038V432h64v48H94.962A22.988,22.988,0,0,1,72,457.038ZM368,480v-8a8.009,8.009,0,0,1,8-8h24a8,8,0,0,0,8-8V432a8.009,8.009,0,0,1,8-8h8v56Zm72-152H424a16.019,16.019,0,0,1-16-16V296a16.019,16.019,0,0,1,16-16h16Zm-48-32v16a32.036,32.036,0,0,0,32,32v64h-8a24.027,24.027,0,0,0-24,24v16H376a24.027,24.027,0,0,0-24,24v8H152V128H352v8a24.027,24.027,0,0,0,24,24h16v16a24.027,24.027,0,0,0,24,24h8v64A32.036,32.036,0,0,0,392,296Zm32-168v56h-8a8.009,8.009,0,0,1-8-8V152a8,8,0,0,0-8-8H376a8.009,8.009,0,0,1-8-8v-8ZM400.019,64a39.831,39.831,0,0,0-7.211,16H216V64Z" style="fill:url(#linear-gradient)"/></svg>
