<svg id="Capa_1" enable-background="new 0 0 266.557 266.557" height="512" viewBox="0 0 266.557 266.557" width="512" xmlns="http://www.w3.org/2000/svg" xmlns:xlink="http://www.w3.org/1999/xlink"><linearGradient id="lg1"><stop offset="0" stop-color="#20d6de"/><stop offset="1" stop-color="#5e309d"/></linearGradient><linearGradient id="SVGID_1_" gradientTransform="matrix(1 0 0 -1 0 306.609)" gradientUnits="userSpaceOnUse" x1="-8.885" x2="263.421" xlink:href="#lg1" y1="173.33" y2="173.33"/><linearGradient id="SVGID_2_" gradientTransform="matrix(1 0 0 -1 0 306.609)" gradientUnits="userSpaceOnUse" x1="-8.885" x2="263.421" xlink:href="#lg1" y1="275.511" y2="275.511"/><linearGradient id="SVGID_3_" gradientTransform="matrix(1 0 0 -1 0 306.609)" gradientUnits="userSpaceOnUse" x1="-8.885" x2="263.421" xlink:href="#lg1" y1="106.691" y2="106.691"/><linearGradient id="SVGID_6_" gradientTransform="matrix(1 0 0 -1 0 306.609)" gradientUnits="userSpaceOnUse" x1="-8.885" x2="263.421" xlink:href="#lg1" y1="137.789" y2="137.789"/><linearGradient id="SVGID_7_" gradientTransform="matrix(1 0 0 -1 0 306.609)" gradientUnits="userSpaceOnUse" x1="-8.885" x2="263.421" xlink:href="#lg1" y1="142.232" y2="142.232"/><linearGradient id="SVGID_8_" gradientTransform="matrix(1 0 0 -1 0 306.609)" gradientUnits="userSpaceOnUse" x1="-8.885" x2="263.421" xlink:href="#lg1" y1="266.625" y2="266.625"/><linearGradient id="SVGID_9_" gradientTransform="matrix(1 0 0 -1 0 306.609)" gradientUnits="userSpaceOnUse" x1="-8.885" x2="263.421" xlink:href="#lg1" y1="244.412" y2="244.412"/><linearGradient id="SVGID_11_" gradientTransform="matrix(1 0 0 -1 0 306.609)" gradientUnits="userSpaceOnUse" x1="-8.885" x2="263.421" xlink:href="#lg1" y1="208.871" y2="208.871"/><linearGradient id="SVGID_12_" gradientTransform="matrix(1 0 0 -1 0 306.609)" gradientUnits="userSpaceOnUse" x1="-8.885" x2="263.421" xlink:href="#lg1" y1="262.183" y2="262.183"/><linearGradient id="SVGID_13_" gradientTransform="matrix(1 0 0 -1 0 306.609)" gradientUnits="userSpaceOnUse" x1="-8.885" x2="263.421" xlink:href="#lg1" y1="235.527" y2="235.527"/><linearGradient id="SVGID_14_" gradientTransform="matrix(1 0 0 -1 0 306.609)" gradientUnits="userSpaceOnUse" x1="-8.885" x2="263.421" xlink:href="#lg1" y1="164.445" y2="164.445"/><linearGradient id="SVGID_15_" gradientTransform="matrix(1 0 0 -1 0 306.609)" gradientUnits="userSpaceOnUse" x1="-8.885" x2="263.421" xlink:href="#lg1" y1="111.134" y2="111.134"/><linearGradient id="SVGID_16_" gradientTransform="matrix(1 0 0 -1 0 306.609)" gradientUnits="userSpaceOnUse" x1="-8.885" x2="263.421" xlink:href="#lg1" y1="97.806" y2="97.806"/><linearGradient id="SVGID_17_" gradientTransform="matrix(1 0 0 -1 0 306.609)" gradientUnits="userSpaceOnUse" x1="-8.885" x2="263.421" xlink:href="#lg1" y1="204.429" y2="204.429"/><linearGradient id="SVGID_18_" gradientTransform="matrix(1 0 0 -1 0 306.609)" gradientUnits="userSpaceOnUse" x1="-8.885" x2="263.421" xlink:href="#lg1" y1="186.66" y2="186.66"/><path d="m13.328 31.098v213.246c.015 12.262 9.951 22.198 22.213 22.213h213.246c2.454 0 4.443-1.989 4.443-4.443v-257.671c0-2.454-1.989-4.443-4.443-4.443h-204.361c-17.167.02-31.079 13.931-31.098 31.098zm8.885 168.82c-.297-4.611 3.201-8.589 7.811-8.885.358-.023.716-.023 1.074 0v-8.885c-3.098-.05-6.157.695-8.885 2.164v-6.606c-.297-4.611 3.201-8.589 7.811-8.885.358-.023.716-.023 1.074 0v-8.885c-3.098-.05-6.157.695-8.885 2.164v-99.903c-.297-4.611 3.201-8.589 7.811-8.885.358-.023.716-.023 1.074 0v-8.885c-3.098-.05-6.157.695-8.885 2.164v-15.493c.013-10.552 7.435-19.643 17.77-21.769v212.802h-4.443c-4.822.016-9.505 1.618-13.328 4.558v-26.771zm222.131 57.754h-208.803c-7.361 0-13.328-5.967-13.328-13.328s5.967-13.328 13.328-13.328h17.77v8.885h-22.213v8.885h22.213v4.443c-.013 2.454 1.965 4.453 4.418 4.467.698.004 1.386-.157 2.01-.469l15.785-7.917 15.785 7.917c2.195 1.097 4.863.207 5.96-1.988.312-.624.472-1.313.469-2.01v-4.443h146.607v8.886zm-182.147-11.631v-15.025h26.656v15.025l-11.342-5.673c-1.25-.625-2.722-.625-3.972 0zm182.147-6.139h-146.606v-8.885h146.607v8.885zm-195.475-231.017h195.475v213.246h-195.475z" fill="url(#SVGID_1_)"/><path d="m66.639 26.656h17.771v-8.886h-26.656v26.656h8.885z" fill="url(#SVGID_2_)"/><path d="m84.41 204.361h-17.771v-17.771h-8.885v26.656h26.656z" fill="url(#SVGID_3_)"/><path d="m226.574 44.426h8.885v-26.656h-26.656v8.886h17.771z" fill="url(#SVGID_2_)"/><path d="m226.574 204.361h-17.771v8.885h26.656v-26.656h-8.885z" fill="url(#SVGID_3_)"/><path d="m213.246 186.59c0-7.361 5.967-13.328 13.328-13.328 2.454 0 4.443-1.989 4.443-4.443s-1.989-4.443-4.443-4.443c-7.361 0-13.328-5.967-13.328-13.328 0-2.454-1.989-4.443-4.443-4.443s-4.443 1.989-4.443 4.443c0 7.361-5.967 13.328-13.328 13.328-2.454 0-4.443 1.989-4.443 4.443s1.989 4.443 4.443 4.443c7.361 0 13.328 5.967 13.328 13.328 0 2.454 1.989 4.443 4.443 4.443s4.443-1.989 4.443-4.443zm-9.023-17.77c1.743-1.294 3.286-2.837 4.58-4.58 1.294 1.743 2.837 3.286 4.58 4.58-1.743 1.294-3.286 2.837-4.58 4.58-1.294-1.743-2.837-3.286-4.58-4.58z" fill="url(#SVGID_6_)"/><path d="m62.197 168.82c7.361 0 13.328 5.967 13.328 13.328 0 2.454 1.989 4.443 4.443 4.443s4.443-1.989 4.443-4.443c0-7.361 5.967-13.328 13.328-13.328 2.454 0 4.443-1.989 4.443-4.443s-1.989-4.443-4.443-4.443c-7.361 0-13.328-5.967-13.328-13.328 0-2.454-1.989-4.443-4.443-4.443s-4.443 1.989-4.443 4.443c0 7.361-5.967 13.328-13.328 13.328-2.454 0-4.443 1.989-4.443 4.443s1.989 4.443 4.443 4.443zm17.77-9.023c1.294 1.743 2.837 3.286 4.58 4.58-1.743 1.294-3.286 2.837-4.58 4.58-1.294-1.743-2.837-3.286-4.58-4.58 1.743-1.294 3.286-2.837 4.58-4.58z" fill="url(#SVGID_7_)"/><path d="m168.82 44.426c7.361 0 13.328 5.967 13.328 13.328 0 2.454 1.989 4.443 4.443 4.443s4.443-1.989 4.443-4.443c0-7.361 5.967-13.328 13.328-13.328 2.454 0 4.443-1.989 4.443-4.443s-1.989-4.443-4.443-4.443c-7.361 0-13.328-5.967-13.328-13.328 0-2.454-1.989-4.443-4.443-4.443s-4.443 1.989-4.443 4.443c0 7.361-5.967 13.328-13.328 13.328-2.454 0-4.443 1.989-4.443 4.443s1.989 4.443 4.443 4.443zm17.77-9.023c1.294 1.743 2.837 3.286 4.58 4.58-1.743 1.294-3.286 2.837-4.58 4.58-1.294-1.743-2.837-3.286-4.58-4.58 1.743-1.294 3.286-2.837 4.58-4.58z" fill="url(#SVGID_8_)"/><path d="m75.525 62.197c0 7.361 5.967 13.328 13.328 13.328s13.328-5.967 13.328-13.328-5.967-13.328-13.328-13.328-13.328 5.967-13.328 13.328zm13.327-4.443c2.454 0 4.443 1.989 4.443 4.443s-1.989 4.443-4.443 4.443-4.443-1.989-4.443-4.443 1.99-4.443 4.443-4.443z" fill="url(#SVGID_9_)"/><path d="m142.164 186.59c-7.361 0-13.328 5.967-13.328 13.328s5.967 13.328 13.328 13.328 13.328-5.967 13.328-13.328-5.967-13.328-13.328-13.328zm0 17.771c-2.454 0-4.443-1.989-4.443-4.443s1.989-4.443 4.443-4.443 4.443 1.989 4.443 4.443-1.989 4.443-4.443 4.443z" fill="url(#SVGID_3_)"/><path d="m222.131 84.41c-7.361 0-13.328 5.967-13.328 13.328s5.967 13.328 13.328 13.328 13.328-5.967 13.328-13.328-5.967-13.328-13.328-13.328zm0 17.77c-2.454 0-4.443-1.989-4.443-4.443s1.989-4.443 4.443-4.443 4.443 1.989 4.443 4.443-1.989 4.443-4.443 4.443z" fill="url(#SVGID_11_)"/><path d="m124.393 39.984h8.885v8.885h-8.885z" fill="url(#SVGID_12_)"/><path d="m199.918 66.639h8.885v8.885h-8.885z" fill="url(#SVGID_13_)"/><path d="m222.131 137.721h8.885v8.885h-8.885z" fill="url(#SVGID_14_)"/><path d="m88.852 191.033h8.885v8.885h-8.885z" fill="url(#SVGID_15_)"/><path d="m168.82 204.361h8.885v8.885h-8.885z" fill="url(#SVGID_16_)"/><path d="m71.082 97.738h8.885v8.885h-8.885z" fill="url(#SVGID_17_)"/><path d="m101.869 100.354-7.17-2.39-2.808 8.441 7.184 2.395c-1.783 7.333-1.783 14.987 0 22.32l-7.184 2.395 2.808 8.441 7.17-2.39c4.178 9.46 11.235 17.361 20.165 22.577l-5.775 8.672 7.393 4.931 6.517-9.827c10.605 3.868 22.235 3.868 32.84 0l6.54 9.809 7.393-4.931-5.775-8.672c10.177-5.947 17.872-15.361 21.676-26.518l5.66 1.888 2.808-8.441-6.402-2.132c1.157-7.45.503-15.069-1.906-22.213l8.308-2.768-2.808-8.441-9.032 3.012c-4.294-7.792-10.619-14.274-18.304-18.757l5.775-8.672-7.393-4.931-6.504 9.832c-10.605-3.868-22.235-3.868-32.84 0l-6.54-9.809-7.393 4.931 5.775 8.672c-8.934 5.213-15.996 13.114-20.178 22.576zm17.113 33.813c-4.979-3.497-9.009-8.18-11.724-13.626 2.936-3.759 6.23-7.225 9.836-10.347-2.648 7.922-1.967 16.58 1.888 23.99zm27.625 25.767c-14.135-.016-27.209-7.5-34.381-19.681 9.886 7.431 22.023 11.242 34.381 10.796 12.359.446 24.496-3.365 34.381-10.796-7.172 12.181-20.246 19.665-34.381 19.681zm-13.328-48.868c-.001 7.361 5.965 13.329 13.326 13.33s13.329-5.965 13.33-13.326c.001-6.334-4.456-11.794-10.662-13.06 12.178 1.482 20.849 12.556 19.367 24.734s-12.556 20.849-24.734 19.367-20.849-12.556-19.367-24.734c1.234-10.141 9.226-18.133 19.367-19.367-6.186 1.288-10.621 6.737-10.627 13.056zm13.328-4.443c2.454 0 4.443 1.989 4.443 4.443s-1.989 4.443-4.443 4.443-4.443-1.989-4.443-4.443 1.989-4.443 4.443-4.443zm27.673 27.446c3.808-7.381 4.471-15.988 1.839-23.866 3.604 3.118 6.895 6.581 9.827 10.338-2.734 5.389-6.738 10.032-11.666 13.528zm-27.673-54.102c16.277.022 30.919 9.898 37.038 24.981-9.119-8.883-20.939-14.475-33.591-15.891-2.29-.272-4.605-.272-6.895 0-12.652 1.416-24.471 7.008-33.591 15.891 6.119-15.083 20.762-24.959 37.039-24.981z" fill="url(#SVGID_18_)"/></svg>